<?xml version="1.0" encoding="utf-8"?>
<!-- Generator: Adobe Illustrator 16.0.0, SVG Export Plug-In . SVG Version: 6.00 Build 0)  -->
<!DOCTYPE svg PUBLIC "-//W3C//DTD SVG 1.1//EN" "http://www.w3.org/Graphics/SVG/1.1/DTD/svg11.dtd">
<svg version="1.1" id="Vector_Chilli_1_" xmlns="http://www.w3.org/2000/svg" xmlns:xlink="http://www.w3.org/1999/xlink" x="0px"
	 y="0px" width="42.069px" height="116.793px" viewBox="0 0 42.069 116.793" enable-background="new 0 0 42.069 116.793"
	 xml:space="preserve">
<g id="Body">
	<g>
		<path fill-rule="evenodd" clip-rule="evenodd" fill="#FF2323" d="M39.992,28.398c0,0,0.381,6.527-4.637,3.528
			c-3.527-2.107-7.359-6.04-10.724-7.128c-5.673-1.835-9.327-2.456-8.64-6.48c0.293-1.719,0.358-3.158,3.6-4.8
			c0,0-5.619,2.568-7.254,4.549C9.24,21.822,5.993,28.911,5.475,33.955c-0.792,7.707-1.883,16.444-3.191,18.634
			c-1.309,2.19-4.213,8.276,0.675,26.468c3.808,14.168,11.547,23.396,2.245,31.061c-8.228,6.779-5.976,8.08,1.718,4.078
			c12.635-6.571,16.409-28.377,12.563-43.518c-1.848-7.274,7.613-11.549,11.061-17.385C32.915,49.349,41.384,33.137,39.992,28.398z"
			/>
	</g>
</g>
<g id="Stalk">
	<g>
		<path fill-rule="evenodd" clip-rule="evenodd" fill="#005E20" d="M39.511,10.878C39.029,0.407,33.399,0,33.399,0
			c6.822,4.895,1.055,15.834-4.556,13.596c-3.689-1.472-12.562-0.121-12.233,5.157c0.106,1.708,0.164,3.186,4.445,4.313
			c4.519,1.19,7.595,2.93,13.849,7.723c2.984,2.288,4.287,0.73,4.481-1.216c0.457-4.562-3.091-4.885,1.174-7.567
			C44.383,19.6,39.766,16.413,39.511,10.878z"/>
	</g>
</g>
</svg>
