<?xml version="1.0" encoding="utf-8"?>
<!-- Generator: Adobe Illustrator 16.0.0, SVG Export Plug-In . SVG Version: 6.00 Build 0)  -->
<!DOCTYPE svg PUBLIC "-//W3C//DTD SVG 1.1//EN" "http://www.w3.org/Graphics/SVG/1.1/DTD/svg11.dtd">
<svg version="1.1" xmlns="http://www.w3.org/2000/svg" xmlns:xlink="http://www.w3.org/1999/xlink" x="0px" y="0px"
	 width="165.551px" height="116.793px" viewBox="0 0 165.551 116.793" enable-background="new 0 0 165.551 116.793"
	 xml:space="preserve">
<g id="Vector_Chilli_1_">
	<g id="Body">
		<g>
			<path fill-rule="evenodd" clip-rule="evenodd" fill="#FF2323" d="M113.724,28.398c0,0,0.381,6.527-4.637,3.528
				c-3.527-2.107-7.359-6.04-10.724-7.128c-5.673-1.835-9.327-2.456-8.64-6.48c0.293-1.719,0.358-3.158,3.6-4.8
				c0,0-5.619,2.568-7.254,4.549c-3.098,3.755-6.345,10.843-6.863,15.888c-0.792,7.707-1.883,16.444-3.191,18.634
				c-1.309,2.19-4.213,8.276,0.675,26.468c3.808,14.168,11.547,23.396,2.245,31.061c-8.228,6.779-5.976,8.08,1.718,4.078
				c12.635-6.571,16.409-28.377,12.563-43.518c-1.848-7.274,7.613-11.549,11.061-17.385
				C106.646,49.349,115.116,33.137,113.724,28.398z"/>
		</g>
	</g>
	<g id="Stalk">
		<g>
			<path fill-rule="evenodd" clip-rule="evenodd" fill="#005E20" d="M113.243,10.878C112.761,0.407,107.131,0,107.131,0
				c6.822,4.895,1.055,15.834-4.556,13.596c-3.689-1.472-12.562-0.121-12.233,5.157c0.106,1.708,0.164,3.186,4.445,4.313
				c4.519,1.19,7.595,2.93,13.849,7.723c2.984,2.288,4.287,0.73,4.481-1.216c0.457-4.562-3.091-4.885,1.174-7.567
				C118.115,19.6,113.498,16.413,113.243,10.878z"/>
		</g>
	</g>
</g>
<g id="CH_LLI_1_" enable-background="new    ">
	<g id="CH_LLI">
		<g>
			<path fill-rule="evenodd" clip-rule="evenodd" d="M25.504,87.294c3,0,5.7,1.25,7.7,3.25c0.2,0.149,0.5,0.149,0.7,0l4-4
				c0.2-0.15,0.2-0.45,0-0.6c-3.1-3.2-7.5-5.15-12.399-5.15c-10.3,0-17.65,7.45-17.65,18c0,10.999,7.95,17.999,17.65,17.999
				c4.899,0,9.299-1.95,12.399-5.1c0.2-0.15,0.2-0.45,0-0.6l-4-4.051c-0.2-0.149-0.5-0.149-0.7,0c-2,2-4.7,3.25-7.7,3.25
				c-6,0-10.85-4.399-10.85-11.499C14.654,92.144,18.754,87.294,25.504,87.294z M69.953,81.294h-5.7c-0.3,0-0.5,0.2-0.5,0.4v13.799
				h-13.25V81.695c0-0.2-0.2-0.4-0.5-0.4h-5.7c-0.3,0-0.5,0.2-0.5,0.4v34.199c0,0.2,0.2,0.399,0.5,0.399h5.7
				c0.3,0,0.5-0.199,0.5-0.399v-13.851h13.25v13.851c0,0.2,0.2,0.399,0.5,0.399h5.7c0.3,0,0.5-0.199,0.5-0.399V81.695
				C70.453,81.495,70.252,81.294,69.953,81.294z M122.102,109.793h-12.199V81.695c0-0.2-0.2-0.4-0.45-0.4h-5.75
				c-0.3,0-0.5,0.2-0.5,0.4v34.199c0,0.2,0.2,0.399,0.5,0.399h18.399c0.3,0,0.5-0.199,0.5-0.399v-5.7
				C122.602,109.994,122.401,109.793,122.102,109.793z M147.151,109.793h-12.2V81.695c0-0.2-0.199-0.4-0.449-0.4h-5.75
				c-0.3,0-0.5,0.2-0.5,0.4v34.199c0,0.2,0.2,0.399,0.5,0.399h18.399c0.3,0,0.5-0.199,0.5-0.399v-5.7
				C147.651,109.994,147.451,109.793,147.151,109.793z M165.251,110.293h-3.5V87.294h3.3c0.3,0,0.5-0.2,0.5-0.4v-5.199
				c0-0.2-0.2-0.4-0.5-0.4h-13.35c-0.3,0-0.5,0.2-0.5,0.4v5.199c0,0.2,0.2,0.4,0.5,0.4h3.35v22.999h-3.55c-0.3,0-0.5,0.2-0.5,0.4
				v5.2c0,0.2,0.2,0.399,0.5,0.399h13.75c0.3,0,0.5-0.199,0.5-0.399v-5.2C165.751,110.494,165.551,110.293,165.251,110.293z"/>
		</g>
	</g>
</g>
<g id="LINCoLN_x27_S_1_" enable-background="new    ">
	<g id="LINCoLN_x27_S">
		<g>
			<path fill-rule="evenodd" clip-rule="evenodd" d="M1.521,64.479H0v9.101h4.888v-1.521H1.521V64.479z M8.502,65.871h1.014v-1.392
				H5.967v1.392h1.014v6.317H5.915v1.392h3.653v-1.392H8.502V65.871z M17.134,70.954l-4.537-6.475h-1.534v9.101h1.521v-6.475
				l4.524,6.475h1.534v-9.101h-1.508V70.954z M24.959,65.871c0.832,0,1.599,0.338,2.145,0.884l1.066-1.066
				c-0.819-0.832-1.95-1.339-3.211-1.339c-2.665,0-4.563,1.938-4.563,4.68c0,2.86,2.054,4.681,4.563,4.681
				c1.261,0,2.392-0.507,3.211-1.326l-1.066-1.079c-0.546,0.546-1.313,0.884-2.145,0.884c-1.677,0-3.016-1.209-3.016-3.159
				C21.943,67.196,23.087,65.871,24.959,65.871z M33.864,64.362c-5.993,0-6.006,9.335,0,9.335
				C39.845,73.697,39.832,64.362,33.864,64.362z M33.864,72.227c-3.939,0-3.926-6.383,0-6.383
				C37.803,65.844,37.803,72.227,33.864,72.227z M41.612,64.479h-1.521v9.101h4.888v-1.521h-3.367V64.479z M52.675,70.954
				l-4.537-6.475h-1.534v9.101h1.521v-6.475l4.524,6.475h1.534v-9.101h-1.508V70.954z M55.626,67.378h1.378v-2.899h-1.378V67.378z
				 M62.282,68.587c-0.65-0.299-1.287-0.299-1.352-0.299c-0.676,0-1.326-0.403-1.326-1.157c0-0.845,0.611-1.261,1.326-1.261
				c0.689,0,1.274,0.338,1.3,1.092h1.508c-0.026-1.547-1.235-2.613-2.808-2.613c-1.469,0-2.847,1.053-2.847,2.782
				c0,1.079,0.533,1.885,1.482,2.327c0.663,0.299,1.287,0.299,1.365,0.299c0.611,0.026,1.326,0.494,1.326,1.261
				c0,0.715-0.624,1.17-1.326,1.17c-0.676,0-1.3-0.377-1.326-1.131h-1.521c0.026,1.703,1.274,2.613,2.847,2.652
				c1.469,0,2.834-0.949,2.834-2.691C63.764,69.939,63.244,69.029,62.282,68.587z"/>
		</g>
	</g>
</g>
</svg>
